<svg width="14" height="14" viewBox="0 0 14 14" fill="none" xmlns="http://www.w3.org/2000/svg">
<path fill-rule="evenodd" clip-rule="evenodd" d="M0.470316 0.571227C0.610942 0.430777 0.801566 0.351888 1.00032 0.351888C1.19907 0.351888 1.38969 0.430777 1.53032 0.571227L7.00032 6.04123L12.4703 0.571227C12.539 0.497541 12.6218 0.438438 12.7138 0.397447C12.8058 0.356455 12.9051 0.334413 13.0058 0.332636C13.1065 0.330859 13.2065 0.349384 13.2999 0.387105C13.3933 0.424826 13.4781 0.48097 13.5494 0.552189C13.6206 0.623408 13.6767 0.708242 13.7144 0.80163C13.7522 0.895018 13.7707 0.995047 13.7689 1.09575C13.7671 1.19645 13.7451 1.29577 13.7041 1.38777C13.6631 1.47977 13.604 1.56257 13.5303 1.63123L8.06032 7.10123L13.5303 12.5712C13.604 12.6399 13.6631 12.7227 13.7041 12.8147C13.7451 12.9067 13.7671 13.006 13.7689 13.1067C13.7707 13.2074 13.7522 13.3074 13.7144 13.4008C13.6767 13.4942 13.6206 13.579 13.5494 13.6503C13.4781 13.7215 13.3933 13.7776 13.2999 13.8154C13.2065 13.8531 13.1065 13.8716 13.0058 13.8698C12.9051 13.868 12.8058 13.846 12.7138 13.805C12.6218 13.764 12.539 13.7049 12.4703 13.6312L7.00032 8.16123L1.53032 13.6312C1.38814 13.7637 1.2001 13.8358 1.00579 13.8324C0.811493 13.829 0.626108 13.7503 0.488695 13.6128C0.351282 13.4754 0.27257 13.2901 0.269142 13.0957C0.265713 12.9014 0.337836 12.7134 0.470316 12.5712L5.94032 7.10123L0.470316 1.63123C0.329866 1.4906 0.250977 1.29998 0.250977 1.10123C0.250977 0.902477 0.329866 0.711853 0.470316 0.571227Z" fill="black"/>
</svg>
