<svg width="24" height="24" viewBox="0 0 24 24" fill="none" xmlns="http://www.w3.org/2000/svg">
<path fill-rule="evenodd" clip-rule="evenodd" d="M10.1821 2.99403C10.9897 1.59363 13.0105 1.59363 13.8181 2.99403L21.3541 16.044C22.1617 17.4444 21.1501 19.194 19.5349 19.194H4.46409C2.84769 19.194 1.83729 17.4444 2.64609 16.044L10.1821 2.99403ZM12.0001 6.00003C12.2388 6.00003 12.4677 6.09485 12.6365 6.26363C12.8053 6.43241 12.9001 6.66133 12.9001 6.90003V11.1C12.9001 11.3387 12.8053 11.5676 12.6365 11.7364C12.4677 11.9052 12.2388 12 12.0001 12C11.7614 12 11.5325 11.9052 11.3637 11.7364C11.1949 11.5676 11.1001 11.3387 11.1001 11.1V6.90003C11.1001 6.66133 11.1949 6.43241 11.3637 6.26363C11.5325 6.09485 11.7614 6.00003 12.0001 6.00003ZM12.0001 16.8C12.3184 16.8 12.6236 16.6736 12.8486 16.4486C13.0737 16.2235 13.2001 15.9183 13.2001 15.6C13.2001 15.2818 13.0737 14.9765 12.8486 14.7515C12.6236 14.5265 12.3184 14.4 12.0001 14.4C11.6818 14.4 11.3766 14.5265 11.1516 14.7515C10.9265 14.9765 10.8001 15.2818 10.8001 15.6C10.8001 15.9183 10.9265 16.2235 11.1516 16.4486C11.3766 16.6736 11.6818 16.8 12.0001 16.8Z" fill="#FFB1C8"/>
</svg>
